<?xml version="1.0" encoding="UTF-8" standalone="no"?>
<svg width="67px" height="67px" viewBox="0 0 67 67" version="1.1" xmlns="http://www.w3.org/2000/svg" xmlns:xlink="http://www.w3.org/1999/xlink" xmlns:sketch="http://www.bohemiancoding.com/sketch/ns">
    <!-- Generator: Sketch 3.3.3 (12072) - http://www.bohemiancoding.com/sketch -->
    <title>cydoval_logo</title>
    <desc>Created with Sketch.</desc>
    <defs></defs>
    <g id="Page-1" stroke="none" stroke-width="1" fill="none" fill-rule="evenodd" sketch:type="MSPage">
        <g id="Artboard-6-Copy" sketch:type="MSArtboardGroup" transform="translate(-122.000000, -65.000000)">
            <g id="cydoval_logo" sketch:type="MSLayerGroup" transform="translate(122.000000, 65.000000)">
                <circle id="Oval-2" fill="#444B58" sketch:type="MSShapeGroup" cx="33.5" cy="33.5" r="33.2729205"></circle>
                <path d="M38.6348761,26.5124303 L34.5717709,26.5124303 L36.9290841,28.8889259 L37.3493941,28.8889259 C39.2729018,28.8889259 40.9504022,29.0994225 42.334905,29.5146735 C43.7142048,29.9286119 44.8666834,30.5955401 45.7603097,31.4969186 C46.6519848,32.3971485 47.3189526,33.5789157 47.7426771,35.009571 C48.1667268,36.4436716 48.3816784,38.1940915 48.3816784,40.2121029 C48.3816784,42.2299503 48.1667268,43.9802061 47.7426771,45.4139786 C47.3194403,46.8439776 46.65231,48.0260729 45.7603097,48.9272873 C44.8658705,49.8288298 43.7133918,50.4955939 42.334905,50.9090402 C40.9499144,51.3241271 39.2725766,51.5346237 37.3493941,51.5346237 L31.9495892,51.5346237 L31.9495892,39.2505123 C31.8681287,39.2506763 29.3166762,39.2549421 29.3004166,39.2549421 C27.5074733,39.2549421 25.956635,38.911716 24.6908271,38.2349439 C23.4212795,37.5570233 22.3686346,36.6476056 21.5618345,35.531957 C20.7517824,34.4136834 20.1456255,33.1265859 19.7601109,31.7059386 C19.3732956,30.2839788 19.1770426,28.821987 19.1770426,27.3606514 C19.1770426,25.8747059 19.3732956,24.4063154 19.7601109,22.9958403 C20.1456255,21.5883183 20.7517824,20.3074553 21.5618345,19.1886894 C22.3694475,18.0723846 23.4220924,17.163131 24.6908271,16.4858666 C25.9576106,15.8086023 27.4962542,15.4652122 29.2641578,15.4652122 C30.2322529,15.4652122 31.1714059,15.611395 32.0556016,15.8996589 C32.9378462,16.1889072 33.7566784,16.6148225 34.4894974,17.1654279 C35.2206905,17.7157051 35.8496109,18.4077354 36.359186,19.222323 C36.8682733,20.038059 37.2398046,20.9725787 37.4633737,21.9999598 L40.205551,22.0644378 C40.0172652,20.5445306 39.5875246,19.2628473 38.9166545,18.1627849 C38.2456219,17.0650195 37.3989858,16.1268903 36.4004853,15.3743197 C35.4013344,14.6220772 34.2738955,14.0468619 33.0495495,13.6645882 C31.8250409,13.2826426 30.5514283,13.0888807 29.2641578,13.0888807 C27.1452099,13.0888807 25.2574733,13.4829672 23.6529784,14.2601477 C22.0489713,15.0379844 20.6978006,16.0978506 19.6375137,17.4102143 C18.5772268,18.7222499 17.7710771,20.2521651 17.2416653,21.9577949 C16.7124162,23.6601434 16.4441332,25.4778303 16.4441332,27.3606514 C16.4441332,29.2434725 16.7124162,31.0613234 17.2416653,32.7633438 C17.7710771,34.4693018 18.5773894,35.9928184 19.6378389,37.2917287 C20.6994266,38.5926077 22.0502721,39.6459113 23.653141,40.4219433 C25.245929,41.1938737 27.1182191,41.5881242 29.2187936,41.5937025 L29.2166798,53.9111193 L38.6369898,53.9111193 C42.7477356,53.8097265 45.8892481,52.6268109 47.974376,50.3953496 C50.0583658,48.1653649 51.1150756,44.7391753 51.1150756,40.2121029 C51.1150756,35.6853587 50.0583658,32.2588409 47.974376,30.0280359 C45.8887603,27.7972309 42.7470852,26.6143153 38.6348761,26.5124303 Z" id="Imported-Layers-2" fill="#FFFFFF" sketch:type="MSShapeGroup"></path>
            </g>
        </g>
    </g>
</svg>