<?xml version="1.0" encoding="UTF-8" standalone="no"?>
<svg width="139px" height="29px" viewBox="0 0 139 29" version="1.1" xmlns="http://www.w3.org/2000/svg" xmlns:xlink="http://www.w3.org/1999/xlink" xmlns:sketch="http://www.bohemiancoding.com/sketch/ns">
    <!-- Generator: Sketch 3.4.2 (15855) - http://www.bohemiancoding.com/sketch -->
    <title>jekyll_logo</title>
    <desc>Created with Sketch.</desc>
    <defs></defs>
    <g id="Page-1" stroke="none" stroke-width="1" fill="none" fill-rule="evenodd" sketch:type="MSPage">
        <g id="jekyll_logo" sketch:type="MSLayerGroup" fill="#303234">
            <g id="encouragement_rocket-copy-2" sketch:type="MSShapeGroup">
                <path d="M21.9284127,17.7784796 C21.3358095,17.7497334 21.263873,17.7686638 21.2237143,17.7409693 C18.4255238,15.8202316 18.425873,15.8202316 15.4848571,17.8818958 C14.056254,18.8831053 12.6726984,19.959686 11.184381,20.8623871 C9.69606349,21.7647377 9.30774603,22.8069631 10.260381,24.3164897 C10.4576825,24.6284913 10.495746,25.0411045 10.6375238,25.5077046 C10.2855238,25.5760645 10.0113968,25.725054 9.86787302,25.6433727 C7.39793651,24.2348084 4.92974603,22.8213362 2.50520635,21.3356479 C2.21711111,21.1589639 2.12701587,20.5665115 2.06066667,20.147588 C2.01946032,19.8864182 2.18149206,19.5856347 2.27542857,19.3104423 C3.23190476,16.5139969 3.1788254,13.943665 1.62415873,11.2064648 C0.015015873,8.37356082 -0.0977777778,5.12138282 0.469333333,1.84852157 C0.752190476,0.215947143 1.59622222,0.0438204431 2.89980952,0.283255344 C6.64190476,0.969658764 9.8008254,2.76419355 12.2368889,5.64687757 C13.3637778,6.98007073 14.6069524,7.48803731 16.2555556,7.61003342 C20.1659683,7.89889778 20.185873,7.94271823 20.9226984,11.7361663 C21.3022857,13.6912592 21.580254,15.6663342 21.9284127,17.7784796 L21.9284127,17.7784796 Z M7.57777778,12.7808457 C9.13942857,12.8229133 10.5767619,11.4627268 10.6706984,9.85293898 C10.7733651,8.08785154 9.25815873,6.4447602 7.4908254,6.40409483 C5.8247619,6.3658834 4.37939683,7.79653323 4.38044444,9.48309444 C4.38149206,11.149323 5.91974603,12.7359736 7.57777778,12.7808457 L7.57777778,12.7808457 Z" id="Fill-1"></path>
                <path d="M17.2078413,25.5343475 C17.1928254,25.5343475 16.7193016,25.7005146 16.7193016,27.1059238 C15.0326349,26.7735896 13.6990159,25.3920187 13.5593333,23.6749584 C13.4304762,22.0918134 14.0635873,20.8441578 15.5386349,20.1255025 C17.0238095,19.4008877 18.7307302,19.7644221 19.9225714,21.1568605 C21.6476508,23.170848 20.7184127,28.5488434 20.461746,28.8215818 C20.2166032,28.5530501 18.9940317,25.6388154 17.2078413,25.5343475" id="Fill-2"></path>
            </g>
            <path d="M38.2,19 C38.002,18.532 37.984,18.082 37.984,17.47 L37.984,15.526 C37.984,14.212 37.66,13.258 36.67,12.844 C37.552,12.43 37.966,11.584 37.966,10.288 L37.966,9.298 C37.966,7.354 37.084,6.4 35.032,6.4 L32.044,6.4 L32.044,19 L34.024,19 L34.024,13.87 L34.708,13.87 C35.608,13.87 36.004,14.302 36.004,15.472 L36.004,17.452 C36.004,18.478 36.076,18.676 36.184,19 L38.2,19 Z M34.978,8.2 C35.68,8.2 35.986,8.596 35.986,9.496 L35.986,10.738 C35.986,11.746 35.536,12.07 34.798,12.07 L34.024,12.07 L34.024,8.2 L34.978,8.2 Z M41.098,9.298 C41.098,8.398 41.494,8.056 42.124,8.056 C42.754,8.056 43.15,8.398 43.15,9.298 L43.15,16.102 C43.15,17.002 42.754,17.344 42.124,17.344 C41.494,17.344 41.098,17.002 41.098,16.102 L41.098,9.298 Z M39.118,15.976 C39.118,17.992 40.18,19.144 42.124,19.144 C44.068,19.144 45.13,17.992 45.13,15.976 L45.13,9.424 C45.13,7.408 44.068,6.256 42.124,6.256 C40.18,6.256 39.118,7.408 39.118,9.424 L39.118,15.976 Z M50.278,14.302 L50.278,16.102 C50.278,17.002 49.882,17.326 49.252,17.326 C48.622,17.326 48.226,17.002 48.226,16.102 L48.226,9.298 C48.226,8.398 48.622,8.056 49.252,8.056 C49.882,8.056 50.278,8.398 50.278,9.298 L50.278,10.648 L52.15,10.648 L52.15,9.424 C52.15,7.408 51.142,6.256 49.198,6.256 C47.254,6.256 46.246,7.408 46.246,9.424 L46.246,15.976 C46.246,17.992 47.254,19.144 49.198,19.144 C51.142,19.144 52.15,17.992 52.15,15.976 L52.15,14.302 L50.278,14.302 Z M57.874,19 L59.908,19 L57.154,12.016 L59.908,6.4 L57.928,6.4 L55.336,11.89 L55.336,6.4 L53.356,6.4 L53.356,19 L55.336,19 L55.336,15.13 L55.948,13.978 L57.874,19 Z M62.788,8.2 L66.208,8.2 L66.208,6.4 L60.808,6.4 L60.808,19 L66.208,19 L66.208,17.2 L62.788,17.2 L62.788,13.51 L65.506,13.51 L65.506,11.71 L62.788,11.71 L62.788,8.2 Z M66.856,8.2 L68.926,8.2 L68.926,19 L70.906,19 L70.906,8.2 L72.976,8.2 L72.976,6.4 L66.856,6.4 L66.856,8.2 Z M76.63,19 L78.61,19 L78.61,6.4 L76.63,6.4 L76.63,19 Z M84.28,19 L86.314,19 L86.314,6.4 L84.55,6.4 L84.55,13.942 L82.516,6.4 L80.032,6.4 L80.032,19 L81.814,19 L81.814,9.874 L84.28,19 Z M87.736,19 L90.868,19 C92.848,19 93.82,17.902 93.82,15.886 L93.82,9.514 C93.82,7.498 92.848,6.4 90.868,6.4 L87.736,6.4 L87.736,19 Z M90.832,8.2 C91.462,8.2 91.84,8.524 91.84,9.424 L91.84,15.976 C91.84,16.876 91.462,17.2 90.832,17.2 L89.716,17.2 L89.716,8.2 L90.832,8.2 Z M94.99,6.4 L94.99,15.994 C94.99,18.01 95.998,19.162 97.942,19.162 C99.886,19.162 100.894,18.01 100.894,15.994 L100.894,6.4 L99.022,6.4 L99.022,16.12 C99.022,17.02 98.626,17.344 97.996,17.344 C97.366,17.344 96.97,17.02 96.97,16.12 L96.97,6.4 L94.99,6.4 Z M101.992,9.424 C101.992,13.024 105.862,13.51 105.862,16.102 C105.862,17.002 105.466,17.326 104.836,17.326 C104.206,17.326 103.81,17.002 103.81,16.102 L103.81,15.202 L101.938,15.202 L101.938,15.976 C101.938,17.992 102.946,19.144 104.89,19.144 C106.834,19.144 107.842,17.992 107.842,15.976 C107.842,12.376 103.972,11.89 103.972,9.298 C103.972,8.398 104.332,8.056 104.962,8.056 C105.592,8.056 105.952,8.398 105.952,9.298 L105.952,9.82 L107.824,9.82 L107.824,9.424 C107.824,7.408 106.834,6.256 104.908,6.256 C102.982,6.256 101.992,7.408 101.992,9.424 L101.992,9.424 Z M108.4,8.2 L110.47,8.2 L110.47,19 L112.45,19 L112.45,8.2 L114.52,8.2 L114.52,6.4 L108.4,6.4 L108.4,8.2 Z M121.54,19 C121.342,18.532 121.324,18.082 121.324,17.47 L121.324,15.526 C121.324,14.212 121,13.258 120.01,12.844 C120.892,12.43 121.306,11.584 121.306,10.288 L121.306,9.298 C121.306,7.354 120.424,6.4 118.372,6.4 L115.384,6.4 L115.384,19 L117.364,19 L117.364,13.87 L118.048,13.87 C118.948,13.87 119.344,14.302 119.344,15.472 L119.344,17.452 C119.344,18.478 119.416,18.676 119.524,19 L121.54,19 Z M118.318,8.2 C119.02,8.2 119.326,8.596 119.326,9.496 L119.326,10.738 C119.326,11.746 118.876,12.07 118.138,12.07 L117.364,12.07 L117.364,8.2 L118.318,8.2 Z M122.62,19 L124.6,19 L124.6,6.4 L122.62,6.4 L122.62,19 Z M128.02,8.2 L131.44,8.2 L131.44,6.4 L126.04,6.4 L126.04,19 L131.44,19 L131.44,17.2 L128.02,17.2 L128.02,13.51 L130.738,13.51 L130.738,11.71 L128.02,11.71 L128.02,8.2 Z M132.412,9.424 C132.412,13.024 136.282,13.51 136.282,16.102 C136.282,17.002 135.886,17.326 135.256,17.326 C134.626,17.326 134.23,17.002 134.23,16.102 L134.23,15.202 L132.358,15.202 L132.358,15.976 C132.358,17.992 133.366,19.144 135.31,19.144 C137.254,19.144 138.262,17.992 138.262,15.976 C138.262,12.376 134.392,11.89 134.392,9.298 C134.392,8.398 134.752,8.056 135.382,8.056 C136.012,8.056 136.372,8.398 136.372,9.298 L136.372,9.82 L138.244,9.82 L138.244,9.424 C138.244,7.408 137.254,6.256 135.328,6.256 C133.402,6.256 132.412,7.408 132.412,9.424 L132.412,9.424 Z" id="Rocket-Industries-Copy" sketch:type="MSShapeGroup"></path>
        </g>
    </g>
</svg>