<?xml version="1.0" encoding="UTF-8" standalone="no"?>
<svg width="28px" height="28px" viewBox="0 0 28 28" version="1.1" xmlns="http://www.w3.org/2000/svg" xmlns:xlink="http://www.w3.org/1999/xlink" xmlns:sketch="http://www.bohemiancoding.com/sketch/ns">
    <!-- Generator: Sketch 3.4.2 (15855) - http://www.bohemiancoding.com/sketch -->
    <title>cydoval_logo copy</title>
    <desc>Created with Sketch.</desc>
    <defs></defs>
    <g id="Page-1" stroke="none" stroke-width="1" fill="none" fill-rule="evenodd" sketch:type="MSPage">
        <g id="portfolio" sketch:type="MSArtboardGroup" transform="translate(-586.000000, -273.000000)" fill="#FFFFFF">
            <g id="cydoval_logo-copy" sketch:type="MSLayerGroup" transform="translate(586.000000, 273.000000)">
                <path d="M14,27.5595099 C21.4887109,27.5595099 27.5595099,21.4887109 27.5595099,14 C27.5595099,6.51128908 21.4887109,0.440490078 14,0.440490078 C6.51128908,0.440490078 0.440490078,6.51128908 0.440490078,14 C0.440490078,21.4887109 6.51128908,27.5595099 14,27.5595099 Z M16.0925847,11.1523984 L14.4367722,11.1523984 L15.3974337,12.1208772 L15.56872,12.1208772 C16.3525954,12.1208772 17.0362169,12.2066596 17.6004348,12.3758843 C18.1625324,12.5445741 18.632195,12.8163632 18.9963691,13.1836965 C19.359748,13.5505617 19.6315533,14.03216 19.8042311,14.6151862 C19.9770415,15.1996165 20.0646394,15.9129544 20.0646394,16.7353423 C20.0646394,17.5576633 19.9770415,18.2709343 19.8042311,18.8552309 C19.6317521,19.4379896 19.3598805,19.9197217 18.9963691,20.2869881 C18.6318637,20.6543882 18.1622011,20.9261105 17.6004348,21.0945997 C17.0360181,21.2637576 16.3524629,21.34954 15.56872,21.34954 L13.3681706,21.34954 L13.3681706,16.3434711 C13.3349735,16.343538 12.2951956,16.3452764 12.2885695,16.3452764 C11.5579022,16.3452764 10.9258986,16.2054036 10.4100516,15.9296028 C9.89268062,15.6533339 9.46370268,15.2827245 9.13491236,14.828071 C8.80479681,14.3723478 8.55777337,13.8478248 8.40066699,13.2688771 C8.24303052,12.6893946 8.1630527,12.0935979 8.1630527,11.4980688 C8.1630527,10.8925105 8.24303052,10.2941063 8.40066699,9.71930399 C8.55777337,9.14570517 8.80479681,8.62372289 9.13491236,8.16779908 C9.46403399,7.71287818 9.89301193,7.34233561 10.4100516,7.06633422 C10.9262961,6.79033283 11.5533302,6.65039317 12.2737931,6.65039317 C12.668315,6.65039317 13.0510423,6.70996614 13.4113732,6.82744057 C13.7709089,6.94531617 14.1046026,7.11888681 14.4032438,7.34327166 C14.7012225,7.56752279 14.9575226,7.84954166 15.1651866,8.18150554 C15.3726518,8.51393745 15.5240597,8.89477658 15.6151695,9.31345892 L16.7326722,9.33973522 C16.6559412,8.72033675 16.4808117,8.19802016 16.2074161,7.74971848 C15.9339543,7.30235285 15.5889298,6.92004278 15.182017,6.61335228 C14.7748392,6.30679551 14.3153809,6.07238153 13.8164306,5.91659586 C13.3174141,5.76094392 12.7983866,5.68198131 12.2737931,5.68198131 C11.4102713,5.68198131 10.6409735,5.84258096 9.98710348,6.15930058 C9.33343227,6.47628764 8.78279794,6.90820842 8.3507057,7.44302798 C7.91861347,7.97771382 7.59008819,8.6011908 7.37434025,9.2962757 C7.15865857,9.99002338 7.04932685,10.7307742 7.04932685,11.4980688 C7.04932685,12.2653633 7.15865857,13.006181 7.37434025,13.699795 C7.59008819,14.3950136 7.91867973,15.015883 8.35083823,15.54522 C8.78346056,16.0753593 9.33396237,16.5046057 9.98716974,16.8208572 C10.6362689,17.1354373 11.3992718,17.2961038 12.2553061,17.2983771 L12.2544447,22.3180187 L16.0934461,22.3180187 C17.7686732,22.2766987 19.0489146,21.7946323 19.898654,20.8852586 C20.7479296,19.9764865 21.1785641,18.5802324 21.1785641,16.7353423 C21.1785641,14.8905859 20.7479296,13.494198 19.898654,12.5850917 C19.0487158,11.6759854 17.7684081,11.193919 16.0925847,11.1523984 Z" id="Oval-2" sketch:type="MSShapeGroup"></path>
            </g>
        </g>
    </g>
</svg>